<svg id="visual" viewBox="0 0 1900 6100" width="1900" height="6100" xmlns="http://www.w3.org/2000/svg" xmlns:xlink="http://www.w3.org/1999/xlink" version="1.1"><rect width="1900" height="6100" fill="#354649"></rect><g><g transform="translate(1152 6031)"><path d="M0 -135.7L117.5 -67.9L117.5 67.9L0 135.7L-117.5 67.9L-117.5 -67.9Z" stroke="#6C7A89" fill="none" stroke-width="5"></path></g><g transform="translate(395 3670)"><path d="M0 -83L71.9 -41.5L71.9 41.5L0 83L-71.9 41.5L-71.9 -41.5Z" stroke="#6C7A89" fill="none" stroke-width="5"></path></g><g transform="translate(36 4863)"><path d="M0 -21L18.2 -10.5L18.2 10.5L0 21L-18.2 10.5L-18.2 -10.5Z" stroke="#6C7A89" fill="none" stroke-width="5"></path></g><g transform="translate(797 449)"><path d="M0 -102L88.3 -51L88.3 51L0 102L-88.3 51L-88.3 -51Z" stroke="#6C7A89" fill="none" stroke-width="5"></path></g><g transform="translate(1162 969)"><path d="M0 -134L116 -67L116 67L0 134L-116 67L-116 -67Z" stroke="#6C7A89" fill="none" stroke-width="5"></path></g><g transform="translate(1310 2786)"><path d="M0 -55L47.6 -27.5L47.6 27.5L0 55L-47.6 27.5L-47.6 -27.5Z" stroke="#6C7A89" fill="none" stroke-width="5"></path></g><g transform="translate(573 4378)"><path d="M0 -105L90.9 -52.5L90.9 52.5L0 105L-90.9 52.5L-90.9 -52.5Z" stroke="#6C7A89" fill="none" stroke-width="5"></path></g><g transform="translate(832 4927)"><path d="M0 -118L102.2 -59L102.2 59L0 118L-102.2 59L-102.2 -59Z" stroke="#6C7A89" fill="none" stroke-width="5"></path></g><g transform="translate(1420 4266)"><path d="M0 -130L112.6 -65L112.6 65L0 130L-112.6 65L-112.6 -65Z" stroke="#6C7A89" fill="none" stroke-width="5"></path></g><g transform="translate(699 1578)"><path d="M0 -36L31.2 -18L31.2 18L0 36L-31.2 18L-31.2 -18Z" stroke="#6C7A89" fill="none" stroke-width="5"></path></g><g transform="translate(1220 431)"><path d="M0 -113L97.9 -56.5L97.9 56.5L0 113L-97.9 56.5L-97.9 -56.5Z" stroke="#6C7A89" fill="none" stroke-width="5"></path></g><g transform="translate(1400 5842)"><path d="M0 -106L91.8 -53L91.8 53L0 106L-91.8 53L-91.8 -53Z" stroke="#6C7A89" fill="none" stroke-width="5"></path></g><g transform="translate(1644 1237)"><path d="M0 -119L103.1 -59.5L103.1 59.5L0 119L-103.1 59.5L-103.1 -59.5Z" stroke="#6C7A89" fill="none" stroke-width="5"></path></g><g transform="translate(1320 1977)"><path d="M0 -94L81.4 -47L81.4 47L0 94L-81.4 47L-81.4 -47Z" stroke="#6C7A89" fill="none" stroke-width="5"></path></g><g transform="translate(207 1962)"><path d="M0 -119L103.1 -59.5L103.1 59.5L0 119L-103.1 59.5L-103.1 -59.5Z" stroke="#6C7A89" fill="none" stroke-width="5"></path></g><g transform="translate(1702 158)"><path d="M0 -92L79.7 -46L79.7 46L0 92L-79.7 46L-79.7 -46Z" stroke="#6C7A89" fill="none" stroke-width="5"></path></g><g transform="translate(1808 5716)"><path d="M0 -35L30.3 -17.5L30.3 17.5L0 35L-30.3 17.5L-30.3 -17.5Z" stroke="#6C7A89" fill="none" stroke-width="5"></path></g><g transform="translate(1661 2111)"><path d="M0 -30L26 -15L26 15L0 30L-26 15L-26 -15Z" stroke="#6C7A89" fill="none" stroke-width="5"></path></g><g transform="translate(653 1014)"><path d="M0 -133L115.2 -66.5L115.2 66.5L0 133L-115.2 66.5L-115.2 -66.5Z" stroke="#6C7A89" fill="none" stroke-width="5"></path></g><g transform="translate(1378 2498)"><path d="M0 -32L27.7 -16L27.7 16L0 32L-27.7 16L-27.7 -16Z" stroke="#6C7A89" fill="none" stroke-width="5"></path></g><g transform="translate(1015 2154)"><path d="M0 -116L100.5 -58L100.5 58L0 116L-100.5 58L-100.5 -58Z" stroke="#6C7A89" fill="none" stroke-width="5"></path></g><g transform="translate(1484 3655)"><path d="M0 -119L103.1 -59.5L103.1 59.5L0 119L-103.1 59.5L-103.1 -59.5Z" stroke="#6C7A89" fill="none" stroke-width="5"></path></g><g transform="translate(1734 3993)"><path d="M0 -110L95.3 -55L95.3 55L0 110L-95.3 55L-95.3 -55Z" stroke="#6C7A89" fill="none" stroke-width="5"></path></g><g transform="translate(522 104)"><path d="M0 -103L89.2 -51.5L89.2 51.5L0 103L-89.2 51.5L-89.2 -51.5Z" stroke="#6C7A89" fill="none" stroke-width="5"></path></g><g transform="translate(1753 6065)"><path d="M0 -22L19.1 -11L19.1 11L0 22L-19.1 11L-19.1 -11Z" stroke="#6C7A89" fill="none" stroke-width="5"></path></g><g transform="translate(1713 3461)"><path d="M0 -59L51.1 -29.5L51.1 29.5L0 59L-51.1 29.5L-51.1 -29.5Z" stroke="#6C7A89" fill="none" stroke-width="5"></path></g><g transform="translate(225 5630)"><path d="M0 -130L112.6 -65L112.6 65L0 130L-112.6 65L-112.6 -65Z" stroke="#6C7A89" fill="none" stroke-width="5"></path></g><g transform="translate(195 3005)"><path d="M0 -35L30.3 -17.5L30.3 17.5L0 35L-30.3 17.5L-30.3 -17.5Z" stroke="#6C7A89" fill="none" stroke-width="5"></path></g><g transform="translate(1195 4835)"><path d="M0 -112L97 -56L97 56L0 112L-97 56L-97 -56Z" stroke="#6C7A89" fill="none" stroke-width="5"></path></g><g transform="translate(1531 599)"><path d="M0 -111L96.1 -55.5L96.1 55.5L0 111L-96.1 55.5L-96.1 -55.5Z" stroke="#6C7A89" fill="none" stroke-width="5"></path></g><g transform="translate(1103 3876)"><path d="M0 -100L86.6 -50L86.6 50L0 100L-86.6 50L-86.6 -50Z" stroke="#6C7A89" fill="none" stroke-width="5"></path></g><g transform="translate(206 1267)"><path d="M0 -113L97.9 -56.5L97.9 56.5L0 113L-97.9 56.5L-97.9 -56.5Z" stroke="#6C7A89" fill="none" stroke-width="5"></path></g><g transform="translate(1208 36)"><path d="M0 -100L86.6 -50L86.6 50L0 100L-86.6 50L-86.6 -50Z" stroke="#6C7A89" fill="none" stroke-width="5"></path></g><g transform="translate(472 637)"><path d="M0 -118L102.2 -59L102.2 59L0 118L-102.2 59L-102.2 -59Z" stroke="#6C7A89" fill="none" stroke-width="5"></path></g><g transform="translate(506 2420)"><path d="M0 -98L84.9 -49L84.9 49L0 98L-84.9 49L-84.9 -49Z" stroke="#6C7A89" fill="none" stroke-width="5"></path></g><g transform="translate(798 3344)"><path d="M0 -29L25.1 -14.5L25.1 14.5L0 29L-25.1 14.5L-25.1 -14.5Z" stroke="#6C7A89" fill="none" stroke-width="5"></path></g><g transform="translate(599 5799)"><path d="M0 -104L90.1 -52L90.1 52L0 104L-90.1 52L-90.1 -52Z" stroke="#6C7A89" fill="none" stroke-width="5"></path></g><g transform="translate(1683 2552)"><path d="M0 -17L14.7 -8.5L14.7 8.5L0 17L-14.7 8.5L-14.7 -8.5Z" stroke="#6C7A89" fill="none" stroke-width="5"></path></g><g transform="translate(1013 1599)"><path d="M0 -123L106.5 -61.5L106.5 61.5L0 123L-106.5 61.5L-106.5 -61.5Z" stroke="#6C7A89" fill="none" stroke-width="5"></path></g><g transform="translate(1448 998)"><path d="M0 -39L33.8 -19.5L33.8 19.5L0 39L-33.8 19.5L-33.8 -19.5Z" stroke="#6C7A89" fill="none" stroke-width="5"></path></g><g transform="translate(1482 1604)"><path d="M0 -40L34.6 -20L34.6 20L0 40L-34.6 20L-34.6 -20Z" stroke="#6C7A89" fill="none" stroke-width="5"></path></g><g transform="translate(942 2719)"><path d="M0 -106L91.8 -53L91.8 53L0 106L-91.8 53L-91.8 -53Z" stroke="#6C7A89" fill="none" stroke-width="5"></path></g><g transform="translate(1324 1272)"><path d="M0 -70L60.6 -35L60.6 35L0 70L-60.6 35L-60.6 -35Z" stroke="#6C7A89" fill="none" stroke-width="5"></path></g><g transform="translate(758 3678)"><path d="M0 -46L39.8 -23L39.8 23L0 46L-39.8 23L-39.8 -23Z" stroke="#6C7A89" fill="none" stroke-width="5"></path></g><g transform="translate(1842 5259)"><path d="M0 -133L115.2 -66.5L115.2 66.5L0 133L-115.2 66.5L-115.2 -66.5Z" stroke="#6C7A89" fill="none" stroke-width="5"></path></g><g transform="translate(1254 5448)"><path d="M0 -31L26.8 -15.5L26.8 15.5L0 31L-26.8 15.5L-26.8 -15.5Z" stroke="#6C7A89" fill="none" stroke-width="5"></path></g><g transform="translate(339 5083)"><path d="M0 -93L80.5 -46.5L80.5 46.5L0 93L-80.5 46.5L-80.5 -46.5Z" stroke="#6C7A89" fill="none" stroke-width="5"></path></g><g transform="translate(1400 5017)"><path d="M0 -106L91.8 -53L91.8 53L0 106L-91.8 53L-91.8 -53Z" stroke="#6C7A89" fill="none" stroke-width="5"></path></g><g transform="translate(144 961)"><path d="M0 -22L19.1 -11L19.1 11L0 22L-19.1 11L-19.1 -11Z" stroke="#6C7A89" fill="none" stroke-width="5"></path></g><g transform="translate(228 129)"><path d="M0 -80L69.3 -40L69.3 40L0 80L-69.3 40L-69.3 -40Z" stroke="#6C7A89" fill="none" stroke-width="5"></path></g><g transform="translate(222 3343)"><path d="M0 -87L75.3 -43.5L75.3 43.5L0 87L-75.3 43.5L-75.3 -43.5Z" stroke="#6C7A89" fill="none" stroke-width="5"></path></g><g transform="translate(1000 1308)"><path d="M0 -112L97 -56L97 56L0 112L-97 56L-97 -56Z" stroke="#6C7A89" fill="none" stroke-width="5"></path></g><g transform="translate(1117 3304)"><path d="M0 -116L100.5 -58L100.5 58L0 116L-100.5 58L-100.5 -58Z" stroke="#6C7A89" fill="none" stroke-width="5"></path></g><g transform="translate(1869 1728)"><path d="M0 -120L103.9 -60L103.9 60L0 120L-103.9 60L-103.9 -60Z" stroke="#6C7A89" fill="none" stroke-width="5"></path></g><g transform="translate(9 2374)"><path d="M0 -60L52 -30L52 30L0 60L-52 30L-52 -30Z" stroke="#6C7A89" fill="none" stroke-width="5"></path></g><g transform="translate(1609 4800)"><path d="M0 -125L108.3 -62.5L108.3 62.5L0 125L-108.3 62.5L-108.3 -62.5Z" stroke="#6C7A89" fill="none" stroke-width="5"></path></g><g transform="translate(875 5912)"><path d="M0 -92L79.7 -46L79.7 46L0 92L-79.7 46L-79.7 -46Z" stroke="#6C7A89" fill="none" stroke-width="5"></path></g><g transform="translate(68 4036)"><path d="M0 -82L71 -41L71 41L0 82L-71 41L-71 -41Z" stroke="#6C7A89" fill="none" stroke-width="5"></path></g><g transform="translate(940 4509)"><path d="M0 -99L85.7 -49.5L85.7 49.5L0 99L-85.7 49.5L-85.7 -49.5Z" stroke="#6C7A89" fill="none" stroke-width="5"></path></g><g transform="translate(172 4553)"><path d="M0 -61L52.8 -30.5L52.8 30.5L0 61L-52.8 30.5L-52.8 -30.5Z" stroke="#6C7A89" fill="none" stroke-width="5"></path></g><g transform="translate(1551 2960)"><path d="M0 -110L95.3 -55L95.3 55L0 110L-95.3 55L-95.3 -55Z" stroke="#6C7A89" fill="none" stroke-width="5"></path></g><g transform="translate(94 3608)"><path d="M0 -117L101.3 -58.5L101.3 58.5L0 117L-101.3 58.5L-101.3 -58.5Z" stroke="#6C7A89" fill="none" stroke-width="5"></path></g><g transform="translate(80 359)"><path d="M0 -65L56.3 -32.5L56.3 32.5L0 65L-56.3 32.5L-56.3 -32.5Z" stroke="#6C7A89" fill="none" stroke-width="5"></path></g><g transform="translate(842 1922)"><path d="M0 -53L45.9 -26.5L45.9 26.5L0 53L-45.9 26.5L-45.9 -26.5Z" stroke="#6C7A89" fill="none" stroke-width="5"></path></g><g transform="translate(712 5232)"><path d="M0 -61L52.8 -30.5L52.8 30.5L0 61L-52.8 30.5L-52.8 -30.5Z" stroke="#6C7A89" fill="none" stroke-width="5"></path></g><g transform="translate(1558 5542)"><path d="M0 -58L50.2 -29L50.2 29L0 58L-50.2 29L-50.2 -29Z" stroke="#6C7A89" fill="none" stroke-width="5"></path></g><g transform="translate(1805 414)"><path d="M0 -38L32.9 -19L32.9 19L0 38L-32.9 19L-32.9 -19Z" stroke="#6C7A89" fill="none" stroke-width="5"></path></g><g transform="translate(1888 3166)"><path d="M0 -117L101.3 -58.5L101.3 58.5L0 117L-101.3 58.5L-101.3 -58.5Z" stroke="#6C7A89" fill="none" stroke-width="5"></path></g><g transform="translate(433 5376)"><path d="M0 -33L28.6 -16.5L28.6 16.5L0 33L-28.6 16.5L-28.6 -16.5Z" stroke="#6C7A89" fill="none" stroke-width="5"></path></g><g transform="translate(787 4196)"><path d="M0 -46L39.8 -23L39.8 23L0 46L-39.8 23L-39.8 -23Z" stroke="#6C7A89" fill="none" stroke-width="5"></path></g><g transform="translate(1056 5088)"><path d="M0 -25L21.7 -12.5L21.7 12.5L0 25L-21.7 12.5L-21.7 -12.5Z" stroke="#6C7A89" fill="none" stroke-width="5"></path></g><g transform="translate(854 759)"><path d="M0 -96L83.1 -48L83.1 48L0 96L-83.1 48L-83.1 -48Z" stroke="#6C7A89" fill="none" stroke-width="5"></path></g><g transform="translate(505 4018)"><path d="M0 -20L17.3 -10L17.3 10L0 20L-17.3 10L-17.3 -10Z" stroke="#6C7A89" fill="none" stroke-width="5"></path></g><g transform="translate(1853 4465)"><path d="M0 -116L100.5 -58L100.5 58L0 116L-100.5 58L-100.5 -58Z" stroke="#6C7A89" fill="none" stroke-width="5"></path></g><g transform="translate(1898 1095)"><path d="M0 -109L94.4 -54.5L94.4 54.5L0 109L-94.4 54.5L-94.4 -54.5Z" stroke="#6C7A89" fill="none" stroke-width="5"></path></g><g transform="translate(871 5596)"><path d="M0 -54L46.8 -27L46.8 27L0 54L-46.8 27L-46.8 -27Z" stroke="#6C7A89" fill="none" stroke-width="5"></path></g><g transform="translate(510 1273)"><path d="M0 -81L70.1 -40.5L70.1 40.5L0 81L-70.1 40.5L-70.1 -40.5Z" stroke="#6C7A89" fill="none" stroke-width="5"></path></g><g transform="translate(936 2993)"><path d="M0 -72L62.4 -36L62.4 36L0 72L-62.4 36L-62.4 -36Z" stroke="#6C7A89" fill="none" stroke-width="5"></path></g><g transform="translate(1401 3243)"><path d="M0 -134L116 -67L116 67L0 134L-116 67L-116 -67Z" stroke="#6C7A89" fill="none" stroke-width="5"></path></g><g transform="translate(1422 3935)"><path d="M0 -18L15.6 -9L15.6 9L0 18L-15.6 9L-15.6 -9Z" stroke="#6C7A89" fill="none" stroke-width="5"></path></g><g transform="translate(94 2692)"><path d="M0 -129L111.7 -64.5L111.7 64.5L0 129L-111.7 64.5L-111.7 -64.5Z" stroke="#6C7A89" fill="none" stroke-width="5"></path></g><g transform="translate(503 2915)"><path d="M0 -55L47.6 -27.5L47.6 27.5L0 55L-47.6 27.5L-47.6 -27.5Z" stroke="#6C7A89" fill="none" stroke-width="5"></path></g><g transform="translate(800 2462)"><path d="M0 -72L62.4 -36L62.4 36L0 72L-62.4 36L-62.4 -36Z" stroke="#6C7A89" fill="none" stroke-width="5"></path></g><g transform="translate(384 1596)"><path d="M0 -63L54.6 -31.5L54.6 31.5L0 63L-54.6 31.5L-54.6 -31.5Z" stroke="#6C7A89" fill="none" stroke-width="5"></path></g><g transform="translate(1407 4575)"><path d="M0 -23L19.9 -11.5L19.9 11.5L0 23L-19.9 11.5L-19.9 -11.5Z" stroke="#6C7A89" fill="none" stroke-width="5"></path></g><g transform="translate(468 2077)"><path d="M0 -97L84 -48.5L84 48.5L0 97L-84 48.5L-84 -48.5Z" stroke="#6C7A89" fill="none" stroke-width="5"></path></g><g transform="translate(307 5948)"><path d="M0 -126L109.1 -63L109.1 63L0 126L-109.1 63L-109.1 -63Z" stroke="#6C7A89" fill="none" stroke-width="5"></path></g><g transform="translate(74 1518)"><path d="M0 -84L72.7 -42L72.7 42L0 84L-72.7 42L-72.7 -42Z" stroke="#6C7A89" fill="none" stroke-width="5"></path></g><g transform="translate(1887 4929)"><path d="M0 -72L62.4 -36L62.4 36L0 72L-62.4 36L-62.4 -36Z" stroke="#6C7A89" fill="none" stroke-width="5"></path></g><g transform="translate(519 4718)"><path d="M0 -21L18.2 -10.5L18.2 10.5L0 21L-18.2 10.5L-18.2 -10.5Z" stroke="#6C7A89" fill="none" stroke-width="5"></path></g><g transform="translate(29 5882)"><path d="M0 -109L94.4 -54.5L94.4 54.5L0 109L-94.4 54.5L-94.4 -54.5Z" stroke="#6C7A89" fill="none" stroke-width="5"></path></g><g transform="translate(879 113)"><path d="M0 -96L83.1 -48L83.1 48L0 96L-83.1 48L-83.1 -48Z" stroke="#6C7A89" fill="none" stroke-width="5"></path></g><g transform="translate(510 3405)"><path d="M0 -133L115.2 -66.5L115.2 66.5L0 133L-115.2 66.5L-115.2 -66.5Z" stroke="#6C7A89" fill="none" stroke-width="5"></path></g><g transform="translate(1875 2852)"><path d="M0 -30L26 -15L26 15L0 30L-26 15L-26 -15Z" stroke="#6C7A89" fill="none" stroke-width="5"></path></g><g transform="translate(42 5322)"><path d="M0 -65L56.3 -32.5L56.3 32.5L0 65L-56.3 32.5L-56.3 -32.5Z" stroke="#6C7A89" fill="none" stroke-width="5"></path></g><g transform="translate(177 634)"><path d="M0 -134L116 -67L116 67L0 134L-116 67L-116 -67Z" stroke="#6C7A89" fill="none" stroke-width="5"></path></g><g transform="translate(1056 3605)"><path d="M0 -47L40.7 -23.5L40.7 23.5L0 47L-40.7 23.5L-40.7 -23.5Z" stroke="#6C7A89" fill="none" stroke-width="5"></path></g><g transform="translate(1877 3717)"><path d="M0 -41L35.5 -20.5L35.5 20.5L0 41L-35.5 20.5L-35.5 -20.5Z" stroke="#6C7A89" fill="none" stroke-width="5"></path></g><g transform="translate(1702 873)"><path d="M0 -55L47.6 -27.5L47.6 27.5L0 55L-47.6 27.5L-47.6 -27.5Z" stroke="#6C7A89" fill="none" stroke-width="5"></path></g><g transform="translate(1427 234)"><path d="M0 -96L83.1 -48L83.1 48L0 96L-83.1 48L-83.1 -48Z" stroke="#6C7A89" fill="none" stroke-width="5"></path></g><g transform="translate(1885 2334)"><path d="M0 -109L94.4 -54.5L94.4 54.5L0 109L-94.4 54.5L-94.4 -54.5Z" stroke="#6C7A89" fill="none" stroke-width="5"></path></g><g transform="translate(1271 2247)"><path d="M0 -56L48.5 -28L48.5 28L0 56L-48.5 28L-48.5 -28Z" stroke="#6C7A89" fill="none" stroke-width="5"></path></g><g transform="translate(1138 4278)"><path d="M0 -121L104.8 -60.5L104.8 60.5L0 121L-104.8 60.5L-104.8 -60.5Z" stroke="#6C7A89" fill="none" stroke-width="5"></path></g><g transform="translate(1875 1424)"><path d="M0 -48L41.6 -24L41.6 24L0 48L-41.6 24L-41.6 -24Z" stroke="#6C7A89" fill="none" stroke-width="5"></path></g><g transform="translate(372 381)"><path d="M0 -33L28.6 -16.5L28.6 16.5L0 33L-28.6 16.5L-28.6 -16.5Z" stroke="#6C7A89" fill="none" stroke-width="5"></path></g><g transform="translate(286 4219)"><path d="M0 -27L23.4 -13.5L23.4 13.5L0 27L-23.4 13.5L-23.4 -13.5Z" stroke="#6C7A89" fill="none" stroke-width="5"></path></g><g transform="translate(23 4314)"><path d="M0 -37L32 -18.5L32 18.5L0 37L-32 18.5L-32 -18.5Z" stroke="#6C7A89" fill="none" stroke-width="5"></path></g><g transform="translate(615 6096)"><path d="M0 -82L71 -41L71 41L0 82L-71 41L-71 -41Z" stroke="#6C7A89" fill="none" stroke-width="5"></path></g><g transform="translate(1130 5697)"><path d="M0 -53L45.9 -26.5L45.9 26.5L0 53L-45.9 26.5L-45.9 -26.5Z" stroke="#6C7A89" fill="none" stroke-width="5"></path></g><g transform="translate(268 2266)"><path d="M0 -72L62.4 -36L62.4 36L0 72L-62.4 36L-62.4 -36Z" stroke="#6C7A89" fill="none" stroke-width="5"></path></g><g transform="translate(1242 702)"><path d="M0 -119L103.1 -59.5L103.1 59.5L0 119L-103.1 59.5L-103.1 -59.5Z" stroke="#6C7A89" fill="none" stroke-width="5"></path></g></g></svg>