<svg id="visual" viewBox="0 0 1900 6100" width="1900" height="6100" xmlns="http://www.w3.org/2000/svg" xmlns:xlink="http://www.w3.org/1999/xlink" version="1.1"><rect x="0" y="0" width="1900" height="6100" fill="#354649"></rect><defs><linearGradient id="grad1_0" x1="0%" y1="0%" x2="100%" y2="100%"><stop offset="30%" stop-color="#a3c6c4" stop-opacity="1"></stop><stop offset="70%" stop-color="#a3c6c4" stop-opacity="1"></stop></linearGradient></defs><defs><linearGradient id="grad1_1" x1="0%" y1="0%" x2="100%" y2="100%"><stop offset="30%" stop-color="#a3c6c4" stop-opacity="1"></stop><stop offset="70%" stop-color="#698385" stop-opacity="1"></stop></linearGradient></defs><defs><linearGradient id="grad1_2" x1="0%" y1="0%" x2="100%" y2="100%"><stop offset="30%" stop-color="#354649" stop-opacity="1"></stop><stop offset="70%" stop-color="#698385" stop-opacity="1"></stop></linearGradient></defs><defs><linearGradient id="grad2_0" x1="0%" y1="0%" x2="100%" y2="100%"><stop offset="30%" stop-color="#a3c6c4" stop-opacity="1"></stop><stop offset="70%" stop-color="#a3c6c4" stop-opacity="1"></stop></linearGradient></defs><defs><linearGradient id="grad2_1" x1="0%" y1="0%" x2="100%" y2="100%"><stop offset="30%" stop-color="#698385" stop-opacity="1"></stop><stop offset="70%" stop-color="#a3c6c4" stop-opacity="1"></stop></linearGradient></defs><defs><linearGradient id="grad2_2" x1="0%" y1="0%" x2="100%" y2="100%"><stop offset="30%" stop-color="#698385" stop-opacity="1"></stop><stop offset="70%" stop-color="#354649" stop-opacity="1"></stop></linearGradient></defs><g transform="translate(1900, 0)"><path d="M0 1900C-107.2 1693.4 -214.4 1486.8 -322.7 1413.6C-430.9 1340.5 -540.2 1400.8 -701.2 1456C-862.1 1511.1 -1074.7 1561.1 -1184.6 1485.5C-1294.6 1409.9 -1301.9 1208.6 -1326.8 1058.1C-1351.6 907.5 -1393.9 807.6 -1474.9 710.3C-1555.9 612.9 -1675.6 518.1 -1752.9 400.1C-1830.2 282.1 -1865.1 141.1 -1900 0L0 0Z" fill="#4e6466"></path><path d="M0 1266.7C-71.5 1128.9 -142.9 991.2 -215.1 942.4C-287.3 893.7 -360.1 933.9 -467.4 970.6C-574.7 1007.4 -716.4 1040.7 -789.8 990.3C-863.1 939.9 -868 805.7 -884.5 705.4C-901.1 605 -929.3 538.4 -983.3 473.5C-1037.3 408.6 -1117.1 345.4 -1168.6 266.7C-1220.2 188.1 -1243.4 94 -1266.7 0L0 0Z" fill="#85a4a4"></path><path d="M0 633.3C-35.7 564.5 -71.5 495.6 -107.6 471.2C-143.6 446.8 -180.1 466.9 -233.7 485.3C-287.4 503.7 -358.2 520.4 -394.9 495.2C-431.5 470 -434 402.9 -442.3 352.7C-450.5 302.5 -464.6 269.2 -491.6 236.8C-518.6 204.3 -558.5 172.7 -584.3 133.4C-610.1 94 -621.7 47 -633.3 0L0 0Z" fill="#a3c6c4"></path></g><g transform="translate(0, 6100)"><path d="M0 -1900C141.7 -1862.7 283.3 -1825.4 400.1 -1752.9C516.9 -1680.5 608.8 -1572.8 727.6 -1510.9C846.4 -1449 992.1 -1432.8 1063.7 -1333.8C1135.2 -1234.8 1132.7 -1052.9 1168.8 -932.1C1205 -811.3 1279.9 -751.7 1419 -683.4C1558.1 -615.1 1761.5 -538.1 1852.4 -422.8C1943.2 -307.5 1921.6 -153.7 1900 0L0 0Z" fill="#4e6466"></path><path d="M0 -1266.7C94.4 -1241.8 188.9 -1216.9 266.7 -1168.6C344.6 -1120.3 405.9 -1048.6 485.1 -1007.3C564.3 -966 661.4 -955.2 709.1 -889.2C756.8 -823.2 755.1 -701.9 779.2 -621.4C803.3 -540.9 853.3 -501.1 946 -455.6C1038.8 -410 1174.3 -358.7 1234.9 -281.9C1295.5 -205 1281.1 -102.5 1266.7 0L0 0Z" fill="#85a4a4"></path><path d="M0 -633.3C47.2 -620.9 94.4 -608.5 133.4 -584.3C172.3 -560.2 202.9 -524.3 242.5 -503.6C282.1 -483 330.7 -477.6 354.6 -444.6C378.4 -411.6 377.6 -351 389.6 -310.7C401.7 -270.4 426.6 -250.6 473 -227.8C519.4 -205 587.2 -179.4 617.5 -140.9C647.7 -102.5 640.5 -51.2 633.3 0L0 0Z" fill="#a3c6c4"></path></g></svg>