<svg id="visual" viewBox="0 0 1600 6100" width="1600" height="6100" xmlns="http://www.w3.org/2000/svg" xmlns:xlink="http://www.w3.org/1999/xlink" version="1.1"><rect x="0" y="0" width="1600" height="6100" fill="#354649"></rect><path d="M6 6100L47.8 5998.3C89.7 5896.7 173.3 5693.3 217.8 5490C262.3 5286.7 267.7 5083.3 228.7 4880C189.7 4676.7 106.3 4473.3 61.2 4270C16 4066.7 9 3863.3 26.5 3660C44 3456.7 86 3253.3 89.3 3050C92.7 2846.7 57.3 2643.3 57 2440C56.7 2236.7 91.3 2033.3 117 1830C142.7 1626.7 159.3 1423.3 166.5 1220C173.7 1016.7 171.3 813.3 162.2 610C153 406.7 137 203.3 129 101.7L121 0L1600 0L1600 101.7C1600 203.3 1600 406.7 1600 610C1600 813.3 1600 1016.7 1600 1220C1600 1423.3 1600 1626.7 1600 1830C1600 2033.3 1600 2236.7 1600 2440C1600 2643.3 1600 2846.7 1600 3050C1600 3253.3 1600 3456.7 1600 3660C1600 3863.3 1600 4066.7 1600 4270C1600 4473.3 1600 4676.7 1600 4880C1600 5083.3 1600 5286.7 1600 5490C1600 5693.3 1600 5896.7 1600 5998.3L1600 6100Z" fill="#6c7a89"></path><path d="M278 6100L308.2 5998.3C338.3 5896.7 398.7 5693.3 431.5 5490C464.3 5286.7 469.7 5083.3 466.7 4880C463.7 4676.7 452.3 4473.3 449.2 4270C446 4066.7 451 3863.3 424.7 3660C398.3 3456.7 340.7 3253.3 332.2 3050C323.7 2846.7 364.3 2643.3 348.8 2440C333.3 2236.7 261.7 2033.3 253.8 1830C246 1626.7 302 1423.3 307.2 1220C312.3 1016.7 266.7 813.3 283 610C299.3 406.7 377.7 203.3 416.8 101.7L456 0L1600 0L1600 101.7C1600 203.3 1600 406.7 1600 610C1600 813.3 1600 1016.7 1600 1220C1600 1423.3 1600 1626.7 1600 1830C1600 2033.3 1600 2236.7 1600 2440C1600 2643.3 1600 2846.7 1600 3050C1600 3253.3 1600 3456.7 1600 3660C1600 3863.3 1600 4066.7 1600 4270C1600 4473.3 1600 4676.7 1600 4880C1600 5083.3 1600 5286.7 1600 5490C1600 5693.3 1600 5896.7 1600 5998.3L1600 6100Z" fill="#637380"></path><path d="M414 6100L416.3 5998.3C418.7 5896.7 423.3 5693.3 461.7 5490C500 5286.7 572 5083.3 591.5 4880C611 4676.7 578 4473.3 577.5 4270C577 4066.7 609 3863.3 622.5 3660C636 3456.7 631 3253.3 641.7 3050C652.3 2846.7 678.7 2643.3 666.5 2440C654.3 2236.7 603.7 2033.3 564.8 1830C526 1626.7 499 1423.3 486 1220C473 1016.7 474 813.3 461.2 610C448.3 406.7 421.7 203.3 408.3 101.7L395 0L1600 0L1600 101.7C1600 203.3 1600 406.7 1600 610C1600 813.3 1600 1016.7 1600 1220C1600 1423.3 1600 1626.7 1600 1830C1600 2033.3 1600 2236.7 1600 2440C1600 2643.3 1600 2846.7 1600 3050C1600 3253.3 1600 3456.7 1600 3660C1600 3863.3 1600 4066.7 1600 4270C1600 4473.3 1600 4676.7 1600 4880C1600 5083.3 1600 5286.7 1600 5490C1600 5693.3 1600 5896.7 1600 5998.3L1600 6100Z" fill="#5a6b77"></path><path d="M755 6100L746.8 5998.3C738.7 5896.7 722.3 5693.3 719 5490C715.7 5286.7 725.3 5083.3 708.8 4880C692.3 4676.7 649.7 4473.3 660.8 4270C672 4066.7 737 3863.3 751 3660C765 3456.7 728 3253.3 738.7 3050C749.3 2846.7 807.7 2643.3 836.8 2440C866 2236.7 866 2033.3 853.2 1830C840.3 1626.7 814.7 1423.3 775.8 1220C737 1016.7 685 813.3 701 610C717 406.7 801 203.3 843 101.7L885 0L1600 0L1600 101.7C1600 203.3 1600 406.7 1600 610C1600 813.3 1600 1016.7 1600 1220C1600 1423.3 1600 1626.7 1600 1830C1600 2033.3 1600 2236.7 1600 2440C1600 2643.3 1600 2846.7 1600 3050C1600 3253.3 1600 3456.7 1600 3660C1600 3863.3 1600 4066.7 1600 4270C1600 4473.3 1600 4676.7 1600 4880C1600 5083.3 1600 5286.7 1600 5490C1600 5693.3 1600 5896.7 1600 5998.3L1600 6100Z" fill="#52646e"></path><path d="M835 6100L870.2 5998.3C905.3 5896.7 975.7 5693.3 983.2 5490C990.7 5286.7 935.3 5083.3 930.8 4880C926.3 4676.7 972.7 4473.3 973.7 4270C974.7 4066.7 930.3 3863.3 920.7 3660C911 3456.7 936 3253.3 909.8 3050C883.7 2846.7 806.3 2643.3 775 2440C743.7 2236.7 758.3 2033.3 760 1830C761.7 1626.7 750.3 1423.3 775.3 1220C800.3 1016.7 861.7 813.3 897.7 610C933.7 406.7 944.3 203.3 949.7 101.7L955 0L1600 0L1600 101.7C1600 203.3 1600 406.7 1600 610C1600 813.3 1600 1016.7 1600 1220C1600 1423.3 1600 1626.7 1600 1830C1600 2033.3 1600 2236.7 1600 2440C1600 2643.3 1600 2846.7 1600 3050C1600 3253.3 1600 3456.7 1600 3660C1600 3863.3 1600 4066.7 1600 4270C1600 4473.3 1600 4676.7 1600 4880C1600 5083.3 1600 5286.7 1600 5490C1600 5693.3 1600 5896.7 1600 5998.3L1600 6100Z" fill="#4a5c64"></path><path d="M1109 6100L1130.7 5998.3C1152.3 5896.7 1195.7 5693.3 1166 5490C1136.3 5286.7 1033.7 5083.3 1012.7 4880C991.7 4676.7 1052.3 4473.3 1080.7 4270C1109 4066.7 1105 3863.3 1120.5 3660C1136 3456.7 1171 3253.3 1177 3050C1183 2846.7 1160 2643.3 1157 2440C1154 2236.7 1171 2033.3 1178.8 1830C1186.7 1626.7 1185.3 1423.3 1153.5 1220C1121.7 1016.7 1059.3 813.3 1022.7 610C986 406.7 975 203.3 969.5 101.7L964 0L1600 0L1600 101.7C1600 203.3 1600 406.7 1600 610C1600 813.3 1600 1016.7 1600 1220C1600 1423.3 1600 1626.7 1600 1830C1600 2033.3 1600 2236.7 1600 2440C1600 2643.3 1600 2846.7 1600 3050C1600 3253.3 1600 3456.7 1600 3660C1600 3863.3 1600 4066.7 1600 4270C1600 4473.3 1600 4676.7 1600 4880C1600 5083.3 1600 5286.7 1600 5490C1600 5693.3 1600 5896.7 1600 5998.3L1600 6100Z" fill="#43555b"></path><path d="M1099 6100L1149.5 5998.3C1200 5896.7 1301 5693.3 1310.3 5490C1319.7 5286.7 1237.3 5083.3 1189.3 4880C1141.3 4676.7 1127.7 4473.3 1136.2 4270C1144.7 4066.7 1175.3 3863.3 1198.7 3660C1222 3456.7 1238 3253.3 1216 3050C1194 2846.7 1134 2643.3 1116.5 2440C1099 2236.7 1124 2033.3 1163.3 1830C1202.7 1626.7 1256.3 1423.3 1275.5 1220C1294.7 1016.7 1279.3 813.3 1265.2 610C1251 406.7 1238 203.3 1231.5 101.7L1225 0L1600 0L1600 101.7C1600 203.3 1600 406.7 1600 610C1600 813.3 1600 1016.7 1600 1220C1600 1423.3 1600 1626.7 1600 1830C1600 2033.3 1600 2236.7 1600 2440C1600 2643.3 1600 2846.7 1600 3050C1600 3253.3 1600 3456.7 1600 3660C1600 3863.3 1600 4066.7 1600 4270C1600 4473.3 1600 4676.7 1600 4880C1600 5083.3 1600 5286.7 1600 5490C1600 5693.3 1600 5896.7 1600 5998.3L1600 6100Z" fill="#3c4d52"></path><path d="M1570 6100L1553.3 5998.3C1536.7 5896.7 1503.3 5693.3 1482.5 5490C1461.7 5286.7 1453.3 5083.3 1438.8 4880C1424.3 4676.7 1403.7 4473.3 1401.5 4270C1399.3 4066.7 1415.7 3863.3 1411.8 3660C1408 3456.7 1384 3253.3 1377.7 3050C1371.3 2846.7 1382.7 2643.3 1404.2 2440C1425.7 2236.7 1457.3 2033.3 1473.3 1830C1489.3 1626.7 1489.7 1423.3 1489.2 1220C1488.7 1016.7 1487.3 813.3 1503.2 610C1519 406.7 1552 203.3 1568.5 101.7L1585 0L1600 0L1600 101.7C1600 203.3 1600 406.7 1600 610C1600 813.3 1600 1016.7 1600 1220C1600 1423.3 1600 1626.7 1600 1830C1600 2033.3 1600 2236.7 1600 2440C1600 2643.3 1600 2846.7 1600 3050C1600 3253.3 1600 3456.7 1600 3660C1600 3863.3 1600 4066.7 1600 4270C1600 4473.3 1600 4676.7 1600 4880C1600 5083.3 1600 5286.7 1600 5490C1600 5693.3 1600 5896.7 1600 5998.3L1600 6100Z" fill="#354649"></path></svg>